<?xml version="1.0" standalone="no"?>
<!DOCTYPE svg PUBLIC "-//W3C//DTD SVG 20010904//EN"
 "http://www.w3.org/TR/2001/REC-SVG-20010904/DTD/svg10.dtd">
<svg version="1.0" xmlns="http://www.w3.org/2000/svg"
 width="400.000000pt" height="400.000000pt" viewBox="0 0 400.000000 400.000000"
 preserveAspectRatio="xMidYMid meet">
<metadata>
Created by potrace 1.11, written by Peter Selinger 2001-2013
</metadata>
<g transform="translate(0.000000,400.000000) scale(0.100000,-0.100000)"
fill="#000000" stroke="none">
<path d="M1810 3988 c-446 -42 -867 -236 -1197 -552 -284 -271 -487 -639 -568
-1033 -72 -346 -51 -695 62 -1033 142 -428 414 -784 787 -1031 372 -247 816
-365 1249 -331 896 69 1631 713 1812 1587 56 269 56 541 0 810 -207 997 -1131
1679 -2145 1583z m60 -601 c52 -12 56 -14 68 -55 l14 -42 93 0 c225 0 482 -85
695 -231 280 -191 481 -512 540 -863 16 -99 14 -308 -5 -417 -30 -171 -102
-352 -202 -501 -67 -100 -73 -101 -52 -5 47 213 78 511 86 820 4 165 3 237 -5
237 -6 0 -17 2 -25 5 -11 5 -15 -24 -20 -172 -21 -571 -121 -1068 -249 -1233
-45 -59 -104 -113 -151 -140 -90 -51 -227 -62 -321 -24 -13 5 -17 4 -12 -4 4
-7 -7 -15 -31 -21 -206 -54 -530 -34 -738 44 -87 33 -244 115 -310 164 -326
237 -530 620 -536 1006 -1 72 -13 137 -60 330 -65 270 -119 519 -146 674 l-18
103 35 30 c83 70 249 168 287 168 6 0 79 -70 162 -156 l150 -157 45 40 c65 57
173 127 265 173 45 22 85 40 90 40 5 0 28 48 52 106 l42 107 101 -7 c56 -4
126 -12 156 -19z"/>
<path d="M1656 3317 c-8 -12 -18 -35 -22 -51 -6 -24 -4 -27 12 -23 47 14 74
19 74 12 0 -4 -20 -60 -44 -124 -70 -185 -162 -506 -188 -656 -3 -17 -9 -13
-32 22 -16 24 -32 40 -37 37 -5 -2 -11 -27 -15 -55 l-7 -50 -78 121 c-101 155
-177 254 -309 404 -111 125 -208 216 -232 216 -20 0 -169 -93 -194 -122 l-21
-23 28 -145 c40 -206 131 -600 139 -600 4 0 11 17 16 38 9 35 12 25 62 -169
73 -288 133 -489 146 -489 6 0 44 10 84 21 76 23 82 31 58 77 -26 51 -125 357
-165 512 -43 168 -114 516 -108 533 3 11 157 -160 284 -318 78 -97 239 -319
246 -339 3 -9 114 7 125 19 2 2 17 68 33 147 39 192 91 383 155 562 29 82 55
153 57 159 2 6 13 -52 26 -129 30 -189 30 -188 51 -134 12 29 20 40 24 30 10
-28 104 -646 131 -860 8 -69 18 -142 21 -162 l6 -37 37 14 c20 7 60 23 89 35
50 22 52 24 47 54 -85 492 -252 1354 -277 1431 -14 43 -23 47 -145 59 -57 5
-64 4 -77 -17z"/>
<path d="M1954 3263 c22 -76 156 -765 231 -1188 25 -143 47 -268 49 -277 4
-19 -72 -63 -176 -102 -57 -22 -63 -27 -66 -55 -2 -21 1 -31 10 -31 32 0 169
44 236 76 63 30 71 38 67 57 -3 12 -23 126 -45 252 -78 442 -200 1065 -237
1210 -15 62 -25 75 -56 75 -13 0 -17 -5 -13 -17z"/>
<path d="M1302 2699 c29 -42 55 -75 57 -73 5 5 -39 69 -79 114 -17 19 -7 1 22
-41z"/>
<path d="M1657 2617 c-43 -155 -81 -319 -97 -421 -12 -68 -15 -74 -45 -89 -18
-9 -49 -19 -69 -22 -38 -8 -42 -15 -26 -45 11 -21 60 -19 147 7 58 17 55 12
78 138 9 50 32 155 52 234 35 143 35 145 23 233 -7 49 -16 91 -20 93 -4 2 -23
-55 -43 -128z"/>
<path d="M934 2565 c3 -11 12 -54 21 -95 43 -206 128 -491 203 -679 53 -135
59 -125 -91 -173 -96 -30 -98 -32 -92 -57 4 -14 8 -28 11 -30 6 -6 161 34 228
59 46 18 56 25 51 38 -89 216 -170 476 -227 726 -30 137 -36 152 -71 190 -25
27 -36 34 -33 21z"/>
<path d="M2788 2334 l-48 -14 6 -203 c7 -205 -8 -644 -27 -830 -28 -274 -82
-397 -176 -397 -25 0 -43 8 -65 31 -17 17 -47 37 -67 45 -55 22 -86 78 -106
190 -20 107 -15 104 -109 57 l-48 -25 6 -59 c12 -102 34 -157 83 -210 66 -70
138 -103 227 -103 39 0 90 5 113 12 95 28 195 141 247 280 86 232 146 622 162
1061 l7 181 -79 -1 c-43 0 -100 -7 -126 -15z"/>
<path d="M2364 1223 c9 -66 27 -145 38 -165 13 -26 29 -22 22 6 -3 13 -9 63
-12 112 -7 84 -8 89 -31 92 -23 4 -23 2 -17 -45z"/>
</g>
</svg>
