<?xml version="1.0" standalone="no"?>
<!DOCTYPE svg PUBLIC "-//W3C//DTD SVG 20010904//EN"
 "http://www.w3.org/TR/2001/REC-SVG-20010904/DTD/svg10.dtd">
<svg version="1.0" xmlns="http://www.w3.org/2000/svg"
 width="400.000000pt" height="400.000000pt" viewBox="0 0 400.000000 400.000000"
 preserveAspectRatio="xMidYMid meet">
<metadata>
Created by potrace 1.11, written by Peter Selinger 2001-2013
</metadata>
<g transform="translate(0.000000,400.000000) scale(0.100000,-0.100000)"
fill="#000000" stroke="none">
<path d="M1865 3989 c-614 -40 -1174 -363 -1517 -873 -615 -917 -375 -2155
536 -2767 217 -146 484 -257 740 -309 216 -43 536 -43 752 0 393 79 770 280
1038 554 534 545 715 1322 476 2038 -288 862 -1117 1418 -2025 1357z m25 -601
c39 -12 46 -18 54 -50 l9 -36 101 -7 c459 -31 842 -261 1064 -640 235 -401
235 -913 1 -1309 -41 -69 -111 -168 -115 -163 -1 1 6 43 17 92 47 227 77 514
86 826 l6 226 -27 5 -26 5 0 -96 c0 -200 -36 -582 -76 -796 -70 -384 -167
-575 -334 -659 -82 -41 -167 -53 -254 -37 -35 6 -64 7 -70 2 -17 -14 -111 -30
-224 -40 -419 -37 -840 142 -1104 469 -178 220 -267 447 -290 739 -8 110 -21
189 -54 321 -59 240 -118 507 -149 679 l-27 143 34 29 c102 90 277 185 308
169 14 -7 247 -252 289 -302 3 -4 40 20 81 53 80 64 190 132 281 174 l56 25
39 101 39 101 120 -5 c66 -3 140 -11 165 -19z"/>
<path d="M1652 3303 c-5 -16 -13 -36 -17 -45 -6 -15 -2 -16 45 -3 48 13 51 12
44 -3 -71 -167 -167 -469 -208 -657 -15 -66 -28 -124 -30 -130 -1 -5 -15 9
-31 33 -15 23 -31 40 -34 37 -3 -4 -10 -29 -16 -57 l-10 -50 -87 133 c-111
172 -225 313 -384 478 -105 109 -130 130 -148 125 -25 -7 -150 -85 -184 -114
l-24 -20 41 -207 c41 -206 116 -531 124 -540 3 -2 8 12 11 33 4 20 9 34 11 32
2 -2 24 -85 50 -183 73 -289 137 -505 151 -505 12 0 146 40 152 45 2 2 -15 54
-39 117 -98 265 -176 559 -237 902 l-19 105 49 -54 c151 -166 289 -336 421
-523 l80 -114 36 7 c70 13 85 26 94 80 17 106 69 326 107 450 41 139 121 368
125 363 2 -2 13 -61 24 -133 32 -192 31 -189 48 -137 25 73 22 86 89 -343 27
-176 94 -652 94 -671 0 -12 39 -1 106 31 60 27 74 38 70 52 -3 10 -17 86 -31
168 -81 470 -243 1286 -257 1300 -6 7 -132 25 -170 25 -30 0 -38 -4 -46 -27z"/>
<path d="M1954 3265 c12 -33 153 -749 211 -1075 31 -173 60 -335 65 -360 5
-24 7 -47 5 -50 -7 -11 -158 -83 -199 -95 -30 -9 -42 -18 -44 -35 -2 -12 1
-27 6 -32 14 -14 124 17 223 63 l86 41 -8 46 c-92 536 -276 1483 -291 1497 -2
2 -16 7 -32 11 -26 6 -28 5 -22 -11z"/>
<path d="M1657 2613 c-33 -119 -70 -277 -100 -433 l-13 -65 -62 -21 c-74 -25
-79 -29 -61 -50 17 -21 112 -14 165 13 l37 18 32 160 c18 88 42 196 54 240 21
75 22 86 10 173 -7 50 -16 92 -19 92 -4 0 -23 -57 -43 -127z"/>
<path d="M1320 2678 c17 -27 33 -48 36 -48 8 0 -13 33 -41 65 -22 25 -22 23 5
-17z"/>
<path d="M940 2557 c0 -27 37 -187 81 -346 43 -157 97 -317 152 -454 l36 -88
-45 -20 c-25 -10 -79 -29 -120 -41 -67 -19 -74 -23 -68 -42 3 -12 10 -25 14
-29 8 -9 143 23 225 54 l54 20 -21 52 c-51 125 -149 436 -188 597 -24 96 -47
191 -51 210 -11 42 -68 115 -69 87z"/>
<path d="M2795 2334 l-50 -15 -1 -377 c-1 -509 -24 -791 -77 -932 -42 -114
-125 -154 -188 -91 -16 16 -44 34 -63 41 -18 6 -41 19 -49 28 -28 31 -55 104
-66 182 -7 41 -14 76 -16 78 -2 3 -34 -10 -71 -27 l-66 -31 7 -58 c11 -96 25
-137 64 -188 66 -88 196 -145 294 -129 209 33 329 232 406 675 36 206 71 582
71 773 l0 87 -72 -1 c-40 0 -95 -7 -123 -15z"/>
<path d="M2365 1260 c-13 -22 35 -220 54 -220 6 0 -3 111 -15 198 -5 31 -26
43 -39 22z"/>
</g>
</svg>
